<svg width="153" height="85" viewBox="0 0 153 85" fill="none" xmlns="http://www.w3.org/2000/svg">
<g id="Gold Award" filter="url(#filter0_d_55_128)">
<g id="Group 1">
<path id="Rectangle 36" d="M32.6174 14.2876L32.6174 43.1933L6.71484 43.1933L14.3167 28.7405L1.00002 14.2876L32.6174 14.2876Z" fill="#81599C"/>
<path id="Rectangle 37" d="M109.366 14.2876L109.366 43.1933L135.269 43.1933L127.667 28.7405L140.984 14.2876L109.366 14.2876Z" fill="#81599C"/>
<path id="Rectangle 34" d="M25.1094 19.7277L32.6174 14.2876V49.9505H25.1094V19.7277Z" fill="#493A52"/>
<path id="Rectangle 38" d="M116.874 19.7277L109.366 14.2876V49.9505H116.874V19.7277Z" fill="#493A52"/>
<path id="Rectangle 25" d="M46.9487 19.7034L46.9487 52.7542L23.6449 52.7542C23.6449 52.7542 21.5249 52.7542 21.5249 36.2288C21.5249 19.7034 23.6449 19.7034 23.6449 19.7034L46.9487 19.7034Z" fill="#AA75CB"/>
<path id="Rectangle 26" d="M95.2538 19.7034L95.2538 52.7542L117.993 52.7542C117.993 52.7542 120.042 52.7542 120.042 36.2288C120.042 19.7034 117.993 19.7034 117.993 19.7034L95.2538 19.7034Z" fill="#AA75CB"/>
</g>
<path id="Star 1" d="M70.8173 2.97308C72.8085 1.26306 75.7499 1.26306 77.741 2.97308L79.8703 4.80174C81.1512 5.90182 82.8787 6.32761 84.5241 5.94882L87.2593 5.31914C89.8171 4.73032 92.4215 6.09725 93.3899 8.53672L94.4255 11.1454C95.0484 12.7148 96.3802 13.8946 98.0132 14.3239L100.728 15.0374C103.266 15.7047 104.937 18.1254 104.661 20.7355L104.365 23.5267C104.188 25.2057 104.819 26.8693 106.065 28.0083L108.137 29.9017C110.075 31.6721 110.429 34.5921 108.972 36.7748L107.413 39.109C106.475 40.5132 106.261 42.2794 106.835 43.8672L107.79 46.5066C108.683 48.9747 107.64 51.7249 105.335 52.9803L102.87 54.3227C101.387 55.1303 100.376 56.5946 100.147 58.2674L99.766 61.0482C99.4095 63.6485 97.2079 65.599 94.5835 65.6394L91.7771 65.6826C90.0888 65.7086 88.5134 66.5354 87.533 67.9101L85.9032 70.1952C84.3792 72.332 81.5233 73.0359 79.1808 71.8521L76.6757 70.5861C75.1688 69.8246 73.3895 69.8246 71.8826 70.5861L69.3776 71.8521C67.0351 73.0359 64.1791 72.332 62.6551 70.1952L61.0253 67.9101C60.0449 66.5354 58.4695 65.7086 56.7812 65.6826L53.9748 65.6394C51.3505 65.599 49.1488 63.6485 48.7924 61.0482L48.4112 58.2674C48.1819 56.5946 47.1712 55.1303 45.6884 54.3227L43.2235 52.9803C40.9186 51.7249 39.8755 48.9747 40.7683 46.5065L41.7231 43.8672C42.2975 42.2794 42.083 40.5132 41.1454 39.109L39.5867 36.7748C38.1292 34.5921 38.4837 31.6721 40.4213 29.9017L42.4932 28.0083C43.7397 26.8693 44.3706 25.2057 44.1929 23.5267L43.8975 20.7355C43.6213 18.1254 45.2922 15.7047 47.8306 15.0374L50.5451 14.3239C52.1781 13.8946 53.5099 12.7148 54.1328 11.1454L55.1684 8.53672C56.1368 6.09726 58.7413 4.73032 61.299 5.31914L64.0342 5.94882C65.6796 6.32761 67.4071 5.90182 68.6881 4.80174L70.8173 2.97308Z" fill="url(#paint0_linear_55_128)"/>
<ellipse id="Ellipse 2" cx="73.9614" cy="37.1823" rx="26.3771" ry="26.3771" fill="#705100"/>
<g id="Mask Group">
<mask id="mask0_55_128" style="mask-type:alpha" maskUnits="userSpaceOnUse" x="49" y="13" width="54" height="54">
<circle id="Ellipse 4" cx="75.6158" cy="40.0895" r="26.4935" fill="#C28B37"/>
</mask>
<g mask="url(#mask0_55_128)">
<circle id="Ellipse 3" cx="74.2048" cy="37.2677" r="26.4935" fill="url(#paint1_linear_55_128)"/>
</g>
</g>
<ellipse id="Ellipse 7" cx="74.597" cy="37.5" rx="20.6568" ry="20.9746" fill="#A36D1D"/>
<ellipse id="Ellipse 8" opacity="0.8" cx="74.597" cy="37.4999" rx="19.3856" ry="19.0678" fill="url(#paint2_linear_55_128)"/>
<path id="Vector" d="M75.4821 23.6873L74.5969 22.0033L73.7118 23.6873L69.6133 31.4844L61.4492 32.4551L59.4816 32.6891L60.8386 34.133L66.4735 40.1289L64.9262 48.7644L64.583 50.6794L66.34 49.8438L74.5969 45.9167L82.8539 49.8438L84.6075 50.6778L84.268 48.7659L82.7341 40.1289L88.3561 34.1321L89.7093 32.6887L87.7447 32.4551L79.5806 31.4844L75.4821 23.6873Z" fill="url(#paint3_linear_55_128)" stroke="#C18832" stroke-width="2"/>
</g>
<defs>
<filter id="filter0_d_55_128" x="0.216517" y="0.907176" width="152.52" height="83.2691" filterUnits="userSpaceOnUse" color-interpolation-filters="sRGB">
<feFlood flood-opacity="0" result="BackgroundImageFix"/>
<feColorMatrix in="SourceAlpha" type="matrix" values="0 0 0 0 0 0 0 0 0 0 0 0 0 0 0 0 0 0 127 0" result="hardAlpha"/>
<feOffset dx="5.48449" dy="5.48449"/>
<feGaussianBlur stdDeviation="3.13399"/>
<feComposite in2="hardAlpha" operator="out"/>
<feColorMatrix type="matrix" values="0 0 0 0 0 0 0 0 0 0 0 0 0 0 0 0 0 0 0.3 0"/>
<feBlend mode="normal" in2="BackgroundImageFix" result="effect1_dropShadow_55_128"/>
<feBlend mode="normal" in="SourceGraphic" in2="effect1_dropShadow_55_128" result="shape"/>
</filter>
<linearGradient id="paint0_linear_55_128" x1="74.2792" y1="0" x2="74.2792" y2="75" gradientUnits="userSpaceOnUse">
<stop stop-color="#FFE178"/>
<stop offset="1" stop-color="#DD9F00"/>
</linearGradient>
<linearGradient id="paint1_linear_55_128" x1="66.3343" y1="10.805" x2="85.4021" y2="61.3346" gradientUnits="userSpaceOnUse">
<stop stop-color="#E4A400"/>
<stop offset="1" stop-color="#966301"/>
</linearGradient>
<linearGradient id="paint2_linear_55_128" x1="74.597" y1="18.4321" x2="74.597" y2="56.5677" gradientUnits="userSpaceOnUse">
<stop stop-color="#FFEC86"/>
<stop offset="1" stop-color="#FFB802"/>
</linearGradient>
<linearGradient id="paint3_linear_55_128" x1="74.5969" y1="32.1178" x2="74.5969" y2="47.8858" gradientUnits="userSpaceOnUse">
<stop stop-color="#FEFFC5"/>
<stop offset="0.161458" stop-color="#FFFAC5"/>
<stop offset="1" stop-color="#FFD585"/>
</linearGradient>
</defs>
</svg>
